<svg xmlns="http://www.w3.org/2000/svg" version="1.1" xmlns:xlink="http://www.w3.org/1999/xlink" xmlns:svgjs="http://svgjs.dev/svgjs" width="1000" height="1000" viewBox="0 0 1000 1000"><rect width="1000" height="1000" fill="#000000"></rect><g transform="matrix(0.7,0,0,0.7,150,218.95000000000005)"><svg viewBox="0 0 448 360" data-background-color="#ffffff" preserveAspectRatio="xMidYMid meet" height="803" width="1000" xmlns="http://www.w3.org/2000/svg" xmlns:xlink="http://www.w3.org/1999/xlink"><g id="tight-bounds" transform="matrix(1,0,0,1,0,0)"><svg viewBox="0 0 448 360" height="360" width="448"><g><svg></svg></g><g><svg viewBox="0 0 448 360" height="360" width="448"><g><path xmlns="http://www.w3.org/2000/svg" d="M193.855 44.683c1.378 0 2.494 1.116 2.495 2.494 0 1.378-1.116 2.494-2.495 2.495h-23.846l-17.167 17.167c-0.973 0.973-2.551 0.973-3.53 0-0.973-0.973-0.973-2.551 0-3.529l13.644-13.645h-40.378c-11.518 0-19.151 2.688-23.815 8.113-4.739 5.519-6.66 14.056-6.66 25.63 0 0.069 0 0.137-0.006 0.206l0.212 36.692 14.692-14.692c0.973-0.973 2.551-0.973 3.53 0 0.973 0.973 0.973 2.551 0 3.53l-18.178 18.178c0.206 35.832 0.193 71.358-0.013 107.19 25.486 25.2 50.617 50.312 75.811 75.791h25.38c1.378 0 2.494 1.116 2.495 2.495 0 1.378-1.116 2.494-2.495 2.494h-20.448l25.942 26.241 0.006-0.006c8.188 8.188 15.577 12.859 22.824 13.413 7.146 0.543 14.442-2.956 22.586-11.093l28.555-28.555h-20.722c-1.378 0-2.494-1.116-2.495-2.494 0-1.378 1.116-2.494 2.495-2.495h25.711l16.625-16.625c0.973-0.973 2.551-0.973 3.529 0 0.973 0.973 0.973 2.551 0 3.53l-13.101 13.102h40.377c11.518 0 19.151-2.688 23.815-8.113 4.739-5.519 6.66-14.056 6.66-25.63h0.013l-0.212-36.898-16.014 16.014c-0.973 0.973-2.551 0.973-3.53 0-0.973-0.973-0.973-2.551 0-3.53l19.5-19.5c-0.206-35.832-0.193-71.358 0.013-107.19-25.486-25.2-50.617-50.312-75.811-75.791h-26.147c-1.378 0-2.494-1.116-2.495-2.495 0-1.378 1.116-2.494 2.495-2.494h21.215l-25.824-26.123c-0.044-0.037-0.081-0.075-0.124-0.112-8.188-8.188-15.577-12.859-22.824-13.413-7.146-0.543-14.442 2.956-22.586 11.093l-28.555 28.555h18.858zM122.578 44.683h45.367l32.078-32.078c9.248-9.248 17.81-13.195 26.484-12.534 8.568 0.649 16.956 5.824 25.985 14.854 0.05 0.05 0.094 0.094 0.137 0.143l29.278 29.615h43.508c13.071 0 21.919 3.268 27.594 9.871 5.6 6.517 7.864 16.101 7.864 28.867 0 0.081-0.006 0.156-0.012 0.23l-0.225 39.742 28.43 28.112 0.006-0.006c9.03 9.03 14.206 17.411 14.854 25.985 0.661 8.674-3.293 17.236-12.534 26.484l-30.768 30.768 0.237 41.843h0.012c0 12.765-2.27 22.35-7.864 28.867-5.675 6.604-14.524 9.872-27.594 9.871h-45.366l-32.078 32.078c-9.248 9.248-17.81 13.195-26.484 12.534-8.568-0.649-16.956-5.824-25.985-14.854l0.006-0.006-29.421-29.758h-43.509c-13.071 0-21.919-3.268-27.594-9.872-5.6-6.517-7.864-16.101-7.863-28.866h0.012l0.231-39.972-28.293-27.969c-0.05-0.044-0.1-0.087-0.143-0.137-9.03-9.03-14.206-17.411-14.854-25.985-0.661-8.674 3.293-17.236 12.534-26.484l30.768-30.768-0.237-41.607c-0.006-0.075-0.012-0.156-0.012-0.23 0-12.765 2.27-22.35 7.864-28.867 5.675-6.604 14.524-9.872 27.594-9.871zM87.682 179.997l-0.274-47.724-27.276 27.276c-8.138 8.138-11.636 15.44-11.094 22.587 0.549 7.246 5.226 14.642 13.413 22.823 0.037 0.037 0.081 0.081 0.113 0.125l24.837 24.551 0.281-49.644zM92.303 241.483l-0.2 35.09h0.013c0 11.58 1.921 20.117 6.66 25.63 4.664 5.432 12.297 8.113 23.815 8.113h38.576l-33.55-33.936-35.308-34.903zM325.415 49.672h-38.575l33.549 33.936 35.308 34.902 0.2-34.884c-0.006-0.069-0.006-0.137-0.007-0.205 0-11.58-1.921-20.117-6.66-25.63-4.664-5.432-12.297-8.113-23.815-8.113zM360.599 130.352l-0.281 49.645 0.274 47.724 27.276-27.276c8.138-8.138 11.636-15.44 11.094-22.587-0.549-7.252-5.226-14.642-13.413-22.824l0.006-0.006-24.956-24.669z" fill="#ffffff" fill-rule="nonzero" stroke="none" stroke-width="1" stroke-linecap="butt" stroke-linejoin="miter" stroke-miterlimit="10" stroke-dasharray="" stroke-dashoffset="0" font-family="none" font-weight="none" font-size="none" text-anchor="none" style="mix-blend-mode: normal" data-fill-palette-color="tertiary"></path></g><g transform="matrix(1,0,0,1,112,154.41874084919473)"><svg viewBox="0 0 224 51.162518301610554" height="51.162518301610554" width="224"><g><svg viewBox="0 0 224 51.162518301610554" height="51.162518301610554" width="224"><g><svg viewBox="0 0 224 51.162518301610554" height="51.162518301610554" width="224"><g><svg viewBox="0 0 224 51.162518301610554" height="51.162518301610554" width="224"><g id="textblocktransform"><svg viewBox="0 0 224 51.162518301610554" height="51.162518301610554" width="224" id="textblock"><g><svg viewBox="0 0 224 51.162518301610554" height="51.162518301610554" width="224"><g transform="matrix(1,0,0,1,0,0)"><svg width="224" viewBox="3.200000047683716 -38.29999923706055 170.74000549316406 39" height="51.162518301610554" data-palette-color="#391534"><g class="undefined-text-0" data-fill-palette-color="primary" id="text-0"><path d="M26.7 0L3.2 0 3.2-1.8 6.1-2.25Q7.05-2.4 7.35-2.9 7.65-3.4 7.65-4.8L7.65-4.8 7.65-30.4Q7.65-31.7 7.3-32.15 6.95-32.6 6-32.75L6-32.75 3.2-33.2 3.2-35.05 16.6-35.05 16.6-33.2 12.95-32.7Q12-32.6 11.68-32.15 11.35-31.7 11.35-30.35L11.35-30.35 11.35-2.3 18.2-2.3Q19.9-2.3 21.03-2.55 22.15-2.8 22.95-3.58 23.75-4.35 24.43-5.93 25.1-7.5 25.95-10.15L25.95-10.15 28-10.15 26.7 0ZM44.6 0L32.95 0 32.95-1.8 35.6-2.25Q36.45-2.35 36.72-2.85 37-3.35 37-4.75L37-4.75 37-19.6Q37-21.4 36.7-22 36.4-22.6 35.25-22.75L35.25-22.75 32.8-23.05 33.05-25 40-25.5 40.55-25.2 40.55-4.55Q40.55-3.5 40.8-2.98 41.05-2.45 42-2.25L42-2.25 44.6-1.8 44.6 0ZM38-31.35L38-31.35Q36.75-31.35 36.02-32.13 35.3-32.9 35.3-34.1L35.3-34.1Q35.3-35.35 36.02-36.18 36.75-37 38.05-37L38.05-37Q39.35-37 40.07-36.25 40.8-35.5 40.8-34.25L40.8-34.25Q40.8-33.05 40.05-32.2 39.3-31.35 38-31.35ZM54.55-1.4L52.65 0.55 51.7 0.3 51.7-32.65Q51.7-34.5 51.3-35.05 50.9-35.6 49.45-35.8L49.45-35.8 47.35-36.1 47.55-38.05 54.7-38.3 55.25-37.75 55.25-21.6 55.25-21.4Q56.4-23.05 57.67-24.05 58.95-25.05 60.45-25.5 61.95-25.95 63.65-25.95L63.65-25.95Q66.75-25.95 68.92-24.48 71.1-23 72.27-20.2 73.45-17.4 73.45-13.3L73.45-13.3Q73.45-8.9 72.05-5.75 70.65-2.6 68.07-0.95 65.5 0.7 61.95 0.7L61.95 0.7Q59.9 0.7 57.97 0.15 56.05-0.4 54.55-1.4L54.55-1.4ZM61.75-1.85L61.75-1.85Q64.1-1.85 65.87-3.1 67.65-4.35 68.65-6.85 69.65-9.35 69.65-12.95L69.65-12.95Q69.65-16.55 68.8-18.8 67.95-21.05 66.4-22.08 64.85-23.1 62.6-23.1L62.6-23.1Q60.45-23.1 58.77-22.2 57.1-21.3 56.17-19.65 55.25-18 55.25-15.65L55.25-15.65 55.25-4.1Q56.5-3.1 58.22-2.48 59.95-1.85 61.75-1.85ZM90.04 0L78.39 0 78.39-1.8 81.04-2.25Q81.89-2.35 82.17-2.85 82.44-3.35 82.44-4.75L82.44-4.75 82.44-32.85Q82.44-34.45 82.09-35 81.74-35.55 80.54-35.7L80.54-35.7 78.09-36.1 78.34-38.05 85.44-38.3 85.99-37.75 85.99-4.55Q85.99-3.5 86.24-2.98 86.49-2.45 87.44-2.25L87.44-2.25 90.04-1.8 90.04 0ZM105.74 0.7L105.74 0.7Q102.09 0.7 99.49-0.9 96.89-2.5 95.54-5.4 94.19-8.3 94.19-12.3L94.19-12.3Q94.19-16.5 95.62-19.58 97.04-22.65 99.79-24.3 102.54-25.95 106.34-25.95L106.34-25.95Q109.89-25.95 112.42-24.4 114.94-22.85 116.29-19.98 117.64-17.1 117.64-13.2L117.64-13.2Q117.64-8.95 116.22-5.8 114.79-2.65 112.14-0.98 109.49 0.7 105.74 0.7ZM106.29-1.85L106.29-1.85Q108.74-1.85 110.39-3.05 112.04-4.25 112.92-6.58 113.79-8.9 113.79-12.3L113.79-12.3Q113.79-15 113.27-17.1 112.74-19.2 111.72-20.63 110.69-22.05 109.19-22.78 107.69-23.5 105.74-23.5L105.74-23.5Q103.29-23.5 101.54-22.35 99.79-21.2 98.89-18.93 97.99-16.65 97.99-13.25L97.99-13.25Q97.99-9.55 98.97-7.03 99.94-4.5 101.82-3.18 103.69-1.85 106.29-1.85ZM133.64 0.7L133.64 0.7Q130.19 0.7 127.66-0.85 125.14-2.4 123.79-5.35 122.44-8.3 122.44-12.4L122.44-12.4Q122.44-16.7 123.86-19.73 125.29-22.75 127.86-24.35 130.44-25.95 133.84-25.95L133.84-25.95Q136.34-25.95 138.31-25.18 140.29-24.4 141.41-23.03 142.54-21.65 142.54-19.85L142.54-19.85Q142.54-18.8 142.16-18.13 141.79-17.45 141.11-17.1 140.44-16.75 139.64-16.75L139.64-16.75Q138.39-16.75 137.76-17.35 137.14-17.95 137.14-18.85L137.14-18.85Q137.14-19.45 137.46-20.15 137.79-20.85 138.54-22.05L138.54-22.05Q137.64-22.85 136.46-23.2 135.29-23.55 133.69-23.55L133.69-23.55Q131.54-23.55 129.84-22.35 128.14-21.15 127.16-18.82 126.19-16.5 126.19-13.1L126.19-13.1Q126.19-7.7 128.46-5 130.74-2.3 134.44-2.3L134.44-2.3Q136.39-2.3 138.11-3.05 139.84-3.8 141.24-5.05L141.24-5.05 142.59-3.6Q140.84-1.45 138.49-0.38 136.14 0.7 133.64 0.7ZM169.59 0.4L169.59 0.4Q168.44 0.4 167.49 0.08 166.54-0.25 165.61-1.05 164.69-1.85 163.59-3.15L163.59-3.15 155.29-13.45 155.29-13.8 163.69-21.3Q164.39-21.95 164.34-22.5 164.29-23.05 163.39-23.15L163.39-23.15 161.09-23.45 161.44-25.25 172.19-25.25 172.19-23.55 170.94-23.25Q169.94-23.05 169.14-22.65 168.34-22.25 167.24-21.25L167.24-21.25 159.24-14.2 166.64-5.1Q167.79-3.75 168.76-3.05 169.74-2.35 170.84-2.35L170.84-2.35Q171.39-2.35 172.04-2.53 172.69-2.7 173.39-2.95L173.39-2.95 173.94-1.45Q172.99-0.55 171.86-0.08 170.74 0.4 169.59 0.4ZM157.99 0L146.59 0 146.59-1.8 149.49-2.2Q150.39-2.35 150.64-2.85 150.89-3.35 150.89-4.7L150.89-4.7 150.89-32.9Q150.89-34.45 150.54-35 150.19-35.55 148.99-35.7L148.99-35.7 146.54-36.1 146.74-38.05 153.89-38.3 154.44-37.75 154.44-4.5Q154.44-3.35 154.71-2.85 154.99-2.35 155.74-2.2L155.74-2.2 157.99-1.8 157.99 0Z" fill="#ffffff" data-fill-palette-color="primary"></path></g></svg></g></svg></g></svg></g></svg></g><g></g></svg></g></svg></g></svg></g></svg></g><defs></defs></svg><rect width="448" height="360" fill="none" stroke="none" visibility="hidden"></rect></g></svg></g></svg>